<svg width="489" height="396" viewBox="0 0 489 396" fill="none" xmlns="http://www.w3.org/2000/svg">
<path d="M266.855 334.47L349.519 367.508L445.428 271.702L382.592 262.621L266.855 334.47Z" fill="url(#paint0_linear_512_1448)"/>
<path opacity="0.5" d="M266.855 334.47L349.519 367.508L445.428 271.702L382.592 262.621L266.855 334.47Z" fill="white"/>
<path d="M165.167 378.248C154.209 378.248 145.326 372.331 145.326 365.031C145.326 357.731 154.209 351.813 165.167 351.813C176.125 351.813 185.009 357.731 185.009 365.031C185.009 372.331 176.125 378.248 165.167 378.248Z" fill="url(#paint1_linear_512_1448)"/>
<path opacity="0.5" d="M165.167 378.248C154.209 378.248 145.326 372.331 145.326 365.031C145.326 357.731 154.209 351.813 165.167 351.813C176.125 351.813 185.009 357.731 185.009 365.031C185.009 372.331 176.125 378.248 165.167 378.248Z" fill="white"/>
<path d="M242.871 289.986L121.739 299.574L148.624 285.749L242.871 289.986Z" fill="url(#paint2_linear_512_1448)"/>
<path opacity="0.5" d="M242.871 289.986L121.739 299.574L148.624 285.749L242.871 289.986Z" fill="white"/>
<path d="M215.59 252.711L251.527 249.775L247.013 244.449H226.341L215.59 252.711Z" fill="url(#paint3_linear_512_1448)"/>
<path opacity="0.5" d="M215.59 252.711L251.527 249.775L247.013 244.449H226.341L215.59 252.711Z" fill="white"/>
<path d="M99.0585 396C85.1348 396 73.8475 389.162 73.8475 380.726C73.8475 372.29 85.1348 365.452 99.0585 365.452C112.982 365.452 124.27 372.29 124.27 380.726C124.27 389.162 112.982 396 99.0585 396Z" fill="url(#paint4_linear_512_1448)"/>
<path opacity="0.5" d="M99.0585 396C85.1348 396 73.8475 389.162 73.8475 380.726C73.8475 372.29 85.1348 365.452 99.0585 365.452C112.982 365.452 124.27 372.29 124.27 380.726C124.27 389.162 112.982 396 99.0585 396Z" fill="white"/>
<path d="M248.452 345.26L262.031 367.545L231.959 373.367L220.315 351.082L248.452 345.26Z" fill="white" stroke="black" stroke-width="0.842683" stroke-linecap="round" stroke-linejoin="round"/>
<path d="M225.163 320.076L238.742 340.416L210.617 349.137L198.973 328.797L225.163 320.076Z" fill="url(#paint5_linear_512_1448)"/>
<mask id="mask0_512_1448" style="mask-type:luminance" maskUnits="userSpaceOnUse" x="198" y="320" width="41" height="30">
<path d="M225.163 320.076L238.742 340.416L210.617 349.137L198.973 328.797L225.163 320.076Z" fill="white"/>
</mask>
<g mask="url(#mask0_512_1448)">
<path opacity="0.5" d="M225.163 320.076L238.742 340.416L210.617 349.137L198.973 328.797L225.163 320.076Z" fill="white" stroke="black" stroke-width="0.842683" stroke-miterlimit="10"/>
</g>
<path d="M225.163 320.076L238.742 340.416L210.617 349.137L198.973 328.797L225.163 320.076Z" stroke="black" stroke-width="0.842683" stroke-linecap="round" stroke-linejoin="round"/>
<path d="M195.092 358.837L219.348 365.613L209.65 381.122L181.513 374.334L195.092 358.837Z" fill="url(#paint6_linear_512_1448)" stroke="black" stroke-width="0.842683" stroke-linecap="round" stroke-linejoin="round"/>
<path d="M125.894 354.86L123.413 373.677C123.413 381.469 113.927 387.799 102.22 387.799C90.5138 387.799 81.0147 381.469 81.0147 373.677L78.4601 354.86H125.894Z" fill="url(#paint7_linear_512_1448)" stroke="black" stroke-width="0.842683" stroke-linecap="round" stroke-linejoin="round"/>
<path d="M102.196 370.679C89.0802 370.679 78.4479 363.597 78.4479 354.86C78.4479 346.124 89.0802 339.041 102.196 339.041C115.311 339.041 125.943 346.124 125.943 354.86C125.943 363.597 115.311 370.679 102.196 370.679Z" fill="url(#paint8_linear_512_1448)" stroke="black" stroke-width="0.842683" stroke-linecap="round" stroke-linejoin="round"/>
<path d="M102.195 368.313C91.0387 368.313 81.9944 362.29 81.9944 354.86C81.9944 347.43 91.0387 341.407 102.195 341.407C113.352 341.407 122.396 347.43 122.396 354.86C122.396 362.29 113.352 368.313 102.195 368.313Z" fill="url(#paint9_linear_512_1448)" stroke="black" stroke-width="0.842683" stroke-linecap="round" stroke-linejoin="round"/>
<path d="M102.196 368.326C91.231 368.326 82.3422 363.39 82.3422 357.301C82.3422 351.212 91.231 346.276 102.196 346.276C113.161 346.276 122.05 351.212 122.05 357.301C122.05 363.39 113.161 368.326 102.196 368.326Z" fill="black" stroke="black" stroke-width="0.842683" stroke-linecap="round" stroke-linejoin="round"/>
<path d="M95.0403 318.75C98.4877 316.533 103.721 316.731 105.817 320.831C108.917 326.802 106.697 337.864 107.813 339.413C108.929 340.961 112.24 341.407 113.79 338.087C115.341 334.767 115.341 330.345 117.337 330.122C119.334 329.899 121.987 330.791 122.434 335.882C122.88 340.974 121.987 346.722 118.441 349.373C114.894 352.024 110.913 351.144 109.76 352.259C108.607 353.374 109.76 355.108 109.76 356.248C109.76 361.203 103.275 363.68 99.1698 362.442C93.1926 360.67 93.8498 354.687 92.9694 352.259C92.0889 349.831 87.2029 349.596 85.4296 345.842C83.6563 342.089 81.0025 334.544 84.7724 331.67C88.5422 328.797 91.4192 330.122 91.8533 333.219C92.3693 335.678 93.203 338.06 94.3334 340.305C91.6796 335.065 89.0755 322.59 95.0403 318.75Z" fill="url(#paint10_linear_512_1448)"/>
<mask id="mask1_512_1448" style="mask-type:luminance" maskUnits="userSpaceOnUse" x="82" y="317" width="41" height="46">
<path d="M95.0403 318.75C98.4877 316.533 103.721 316.731 105.817 320.831C108.917 326.802 106.697 337.864 107.813 339.413C108.929 340.961 112.24 341.407 113.79 338.087C115.341 334.767 115.341 330.345 117.337 330.122C119.334 329.899 121.987 330.791 122.434 335.882C122.88 340.974 121.987 346.722 118.441 349.373C114.894 352.024 110.913 351.144 109.76 352.259C108.607 353.374 109.76 355.108 109.76 356.248C109.76 361.203 103.275 363.68 99.1698 362.442C93.1926 360.67 93.8498 354.687 92.9694 352.259C92.0889 349.831 87.2029 349.596 85.4296 345.842C83.6563 342.089 81.0025 334.544 84.7724 331.67C88.5422 328.797 91.4192 330.122 91.8533 333.219C92.3693 335.678 93.203 338.06 94.3334 340.305C91.6796 335.065 89.0755 322.59 95.0403 318.75Z" fill="white"/>
</mask>
<g mask="url(#mask1_512_1448)">
<path opacity="0.2" d="M95.0403 318.75C98.4877 316.533 103.721 316.731 105.817 320.831C108.917 326.802 106.697 337.864 107.813 339.413C108.929 340.961 112.24 341.407 113.79 338.087C115.341 334.767 115.341 330.345 117.337 330.122C119.334 329.899 121.987 330.791 122.434 335.882C122.88 340.974 121.987 346.722 118.441 349.373C114.894 352.024 110.913 351.144 109.76 352.259C108.607 353.374 109.76 355.108 109.76 356.248C109.76 361.203 103.275 363.68 99.1698 362.442C93.1926 360.67 93.8498 354.687 92.9694 352.259C92.0889 349.831 87.2029 349.596 85.4296 345.842C83.6563 342.089 81.0025 334.544 84.7724 331.67C88.5422 328.797 91.4192 330.122 91.8533 333.219C92.3693 335.678 93.203 338.06 94.3334 340.305C91.6796 335.065 89.0755 322.59 95.0403 318.75Z" fill="url(#paint11_linear_512_1448)"/>
</g>
<path d="M95.0403 318.75C98.4877 316.533 103.721 316.731 105.817 320.831C108.917 326.802 106.697 337.864 107.813 339.413C108.929 340.961 112.24 341.407 113.79 338.087C115.341 334.767 115.341 330.345 117.337 330.122C119.334 329.899 121.987 330.791 122.434 335.882C122.88 340.974 121.987 346.722 118.441 349.373C114.894 352.024 110.913 351.144 109.76 352.259C108.607 353.374 109.76 355.108 109.76 356.248C109.76 361.203 103.275 363.68 99.1698 362.442C93.1926 360.67 93.8498 354.687 92.9694 352.259C92.0889 349.831 87.2029 349.596 85.4296 345.842C83.6563 342.089 81.0025 334.544 84.7724 331.67C88.5422 328.797 91.4192 330.122 91.8533 333.219C92.3693 335.678 93.203 338.06 94.3334 340.305C91.6796 335.065 89.0755 322.59 95.0403 318.75Z" stroke="black" stroke-width="0.842683" stroke-linecap="round" stroke-linejoin="round"/>
<path d="M100.497 320.385C101.503 321.047 102.345 321.928 102.96 322.962C103.574 323.997 103.945 325.157 104.044 326.356C104.267 330.345 104.044 342.956 105.594 344.727C107.144 346.499 112.241 346.053 115.515 342.956C118.789 339.859 117.338 333.231 117.338 333.231" stroke="black" stroke-width="0.421342" stroke-linecap="round" stroke-linejoin="round"/>
<path d="M116.357 346.858C115.209 347.751 113.881 348.385 112.464 348.716C108.47 349.596 105.593 347.613 104.924 349.596C104.254 351.578 105.593 358.676 105.593 358.676" stroke="black" stroke-width="0.421342" stroke-linecap="round" stroke-linejoin="round"/>
<path d="M118.664 344.504C118.251 345.086 117.777 345.621 117.25 346.102" stroke="black" stroke-width="0.421342" stroke-linecap="round" stroke-linejoin="round"/>
<path d="M100.571 355.046C100.348 351.747 100.323 348.438 100.497 345.136C100.894 340.181 98.5871 330.977 98.0167 326.815" stroke="black" stroke-width="0.421342" stroke-linecap="round" stroke-linejoin="round"/>
<path d="M100.943 360.224C100.943 360.224 100.819 358.874 100.683 356.892" stroke="black" stroke-width="0.421342" stroke-linecap="round" stroke-linejoin="round"/>
<path d="M85.6035 338.05C85.4919 336.973 85.4299 336.316 85.4299 336.316" stroke="black" stroke-width="0.421342" stroke-linecap="round" stroke-linejoin="round"/>
<path d="M96.0693 356.235C96.0693 356.235 95.1764 348.939 93.4031 347.564C91.6298 346.189 86.5454 345.347 86.099 342.027C86.0246 341.506 85.9626 341.011 85.9006 340.553" stroke="black" stroke-width="0.421342" stroke-linecap="round" stroke-linejoin="round"/>
<path d="M88.5298 333.442C88.9945 333.753 89.365 334.185 89.6011 334.692C89.8372 335.199 89.9299 335.76 89.8691 336.316C89.778 337.642 90.0609 338.967 90.6856 340.141C91.3103 341.314 92.2518 342.29 93.4033 342.956" stroke="black" stroke-width="0.421342" stroke-linecap="round" stroke-linejoin="round"/>
<path d="M97.7684 324.287C97.7019 323.048 97.7268 321.806 97.8428 320.571" stroke="black" stroke-width="0.421342" stroke-linecap="round" stroke-linejoin="round"/>
<path d="M182.219 319.431L178.932 353.993V357.648C178.932 362.603 171.963 366.53 163.357 366.53C154.751 366.53 147.781 362.553 147.781 357.648V353.993L144.793 319.072L182.219 319.431Z" fill="white" stroke="black" stroke-width="0.842683" stroke-linecap="round" stroke-linejoin="round"/>
<path d="M147.633 352.123L145.909 331.993C148.228 335.597 155.148 338.186 163.332 338.186C171.951 338.186 179.156 335.288 181.078 331.386L179.119 351.999C175.944 354.637 170.079 356.421 163.332 356.421C156.586 356.421 150.808 354.724 147.633 352.123Z" fill="url(#paint12_linear_512_1448)" stroke="black" stroke-width="0.842683" stroke-linecap="round" stroke-linejoin="round"/>
<path d="M181.6 325.947V325.712L181.761 324.325L181.6 325.947Z" fill="white" stroke="black" stroke-width="0.842683" stroke-linecap="round" stroke-linejoin="round"/>
<path d="M144.198 314.303C147.496 310.141 154.825 307.23 163.357 307.23C171.889 307.23 179.218 310.141 182.529 314.303H184.401V319.258C184.401 325.898 174.977 331.274 163.32 331.274C151.663 331.274 142.238 325.898 142.238 319.258V314.303H144.198Z" fill="url(#paint13_linear_512_1448)" stroke="black" stroke-width="0.842683" stroke-linecap="round" stroke-linejoin="round"/>
<path opacity="0.2" d="M144.198 314.303C147.496 310.141 154.825 307.23 163.357 307.23C171.889 307.23 179.218 310.141 182.529 314.303H184.401V319.258C184.401 325.898 174.977 331.274 163.32 331.274C151.663 331.274 142.238 325.898 142.238 319.258V314.303H144.198Z" fill="url(#paint14_linear_512_1448)"/>
<path d="M163.357 326.319C151.735 326.319 142.313 320.939 142.313 314.303C142.313 307.667 151.735 302.287 163.357 302.287C174.98 302.287 184.401 307.667 184.401 314.303C184.401 320.939 174.98 326.319 163.357 326.319Z" fill="white" stroke="black" stroke-width="0.842683" stroke-linecap="round" stroke-linejoin="round"/>
<path d="M146.616 307.601C149.506 303.959 155.904 301.407 163.357 301.407C170.81 301.407 177.209 303.947 180.099 307.601H181.698V311.912C181.698 317.71 173.476 322.404 163.32 322.404C153.164 322.404 144.942 317.71 144.942 311.912V307.601H146.616Z" fill="url(#paint15_linear_512_1448)" stroke="black" stroke-width="0.842683" stroke-linecap="round" stroke-linejoin="round"/>
<path d="M163.357 318.094C153.207 318.094 144.979 313.396 144.979 307.601C144.979 301.806 153.207 297.109 163.357 297.109C173.507 297.109 181.735 301.806 181.735 307.601C181.735 313.396 173.507 318.094 163.357 318.094Z" fill="white" stroke="black" stroke-width="0.842683" stroke-linecap="round" stroke-linejoin="round"/>
<path d="M348.849 205.712C348.849 205.712 347.41 204.758 338.283 208.586C329.156 212.414 325.572 211.584 316.693 210.023C306.028 208.165 297.174 206.307 296.108 210.618C294.26 218.05 301.725 217.964 315.155 219.401C328.586 220.838 336.373 216.737 340.689 214.817C342.675 214.003 344.599 213.042 346.443 211.943L348.849 205.712Z" fill="white" stroke="black" stroke-width="0.842683" stroke-linecap="round" stroke-linejoin="round"/>
<path d="M369.484 209.552C369.484 209.552 357.48 223.451 352.209 219.611C346.939 215.771 347.41 203.321 352.209 199.481C357.009 195.641 370.439 202.838 369.484 209.552Z" fill="white" stroke="black" stroke-width="0.842683" stroke-linecap="round" stroke-linejoin="round"/>
<path d="M332.988 171.2C332.988 171.2 332.505 184.145 335.865 192.767C339.226 201.389 345.464 207.149 346.419 211.943C347.373 216.737 346.902 223.451 351.701 225.371C356.5 227.292 356.5 223.935 356.017 220.094C355.533 216.254 354.578 201.884 354.578 201.884L370.439 211.46C370.439 211.46 366.124 223.451 375.238 224.888C384.353 226.325 395.39 212.426 396.828 201.922C398.267 191.417 392.513 167.88 382.431 161.649C372.349 155.418 359.402 156.384 352.669 156.384C345.935 156.384 335.89 161.141 332.988 171.2Z" fill="white" stroke="black" stroke-width="0.842683" stroke-linecap="round" stroke-linejoin="round"/>
<path d="M371.245 157.896C371.245 157.896 373.725 159.134 378.053 165.935C382.381 172.736 373.725 178.596 369.075 175.511C364.425 172.426 368.467 165.935 365.057 162.838C363.095 161.176 361.779 158.879 361.337 156.347L371.245 157.896Z" fill="black"/>
<path d="M385.159 167.471C386.268 168.262 387.199 169.276 387.893 170.447C388.587 171.618 389.028 172.921 389.189 174.272C389.499 178.596 381.749 170.556 380.831 166.84C379.913 163.123 385.159 167.471 385.159 167.471Z" fill="black"/>
<path d="M357.48 157.784C358.581 159.781 359.117 162.039 359.032 164.317C358.947 166.595 358.243 168.807 356.997 170.717C352.681 177.431 343.083 180.305 339.251 175.511C335.419 170.717 333.968 168.326 335.407 165.935C336.845 163.544 350.759 153.944 357.48 157.784Z" fill="url(#paint16_linear_512_1448)" stroke="black" stroke-width="0.842683" stroke-linecap="round" stroke-linejoin="round"/>
<path d="M321.976 134.297C323.797 134.495 325.64 134.297 327.378 133.718C329.116 133.138 330.708 132.191 332.046 130.94C336.845 126.629 341.173 117.041 343.082 117.512C344.992 117.982 351.763 131.894 351.763 131.894C351.763 131.894 363.283 132.86 364.238 136.205C365.193 139.549 359.923 155.381 355.558 162.095C353.522 165.086 350.812 167.557 347.646 169.311C344.48 171.064 340.946 172.051 337.328 172.191C331.574 172.191 314.3 173.628 311.894 167.868C309.488 162.107 311.423 144.864 311.423 144.864C311.423 144.864 303.734 137.196 307.095 135.759C310.456 134.322 321.976 134.297 321.976 134.297Z" fill="white" stroke="black" stroke-width="0.842683" stroke-linecap="round" stroke-linejoin="round"/>
<path d="M324.308 158.28C324.891 157.524 325.449 156.756 325.995 155.963C326.9 154.625 329.045 152.581 333.175 153.882C339.053 155.728 343.096 161.315 336.573 165.935C330.434 170.333 318.108 166.369 324.308 158.28Z" fill="black"/>
<path d="M351.726 131.894C351.726 131.894 345.005 135.734 341.173 134.297C337.341 132.86 339.735 116.558 343.083 117.512C346.431 118.466 352.21 125.663 351.726 131.894Z" fill="white" stroke="black" stroke-width="0.842683" stroke-linecap="round" stroke-linejoin="round"/>
<path d="M307.095 135.734C307.095 135.734 313.296 135.251 317.177 139.562C321.059 143.873 318.616 148.233 313.333 149.15C308.05 150.067 305.186 135.734 307.095 135.734Z" fill="white" stroke="black" stroke-width="0.842683" stroke-linecap="round" stroke-linejoin="round"/>
<path d="M344.521 162.578C344.521 162.578 350.721 157.784 349.32 161.612C347.919 165.44 345.488 165.935 343.12 164.969C340.751 164.003 344.521 162.578 344.521 162.578Z" fill="url(#paint17_linear_512_1448)" stroke="black" stroke-width="0.842683" stroke-linecap="round" stroke-linejoin="round"/>
<path d="M347.944 150.562C348.303 151.801 349.32 152.668 350.213 152.42C351.106 152.172 351.54 150.934 351.18 149.658C350.821 148.382 349.804 147.552 348.911 147.8C348.018 148.047 347.584 149.299 347.944 150.562Z" fill="black"/>
<path d="M333.15 161.872C334.303 162.541 335.63 162.442 336.077 161.637C336.523 160.832 336.002 159.655 334.837 158.986C334.41 158.647 333.872 158.482 333.329 158.524C332.787 158.565 332.28 158.81 331.91 159.209C331.463 160.014 332.009 161.203 333.15 161.872Z" fill="white"/>
<path d="M376.193 192.296C376.193 192.296 377.632 202.838 375.722 207.162C373.812 211.485 371.878 227.775 368.033 228.221C364.189 228.667 365.64 219.549 365.64 218.15C365.64 216.75 365.156 201.377 365.156 201.377C365.156 201.377 361.796 194.179 359.886 190.351" fill="white"/>
<path d="M376.193 192.296C376.193 192.296 377.632 202.838 375.722 207.162C373.812 211.485 371.878 227.775 368.033 228.221C364.189 228.667 365.64 219.549 365.64 218.15C365.64 216.75 365.156 201.377 365.156 201.377C365.156 201.377 361.796 194.179 359.886 190.351" stroke="black" stroke-width="0.842683" stroke-linecap="round" stroke-linejoin="round"/>
<path d="M392.029 191.813C392.029 191.813 379.07 187.973 377.632 202.355" stroke="black" stroke-width="0.842683" stroke-linecap="round" stroke-linejoin="round"/>
<path d="M354.604 201.922C354.604 201.922 343.567 196.161 343.083 183.699" stroke="black" stroke-width="0.842683" stroke-linecap="round" stroke-linejoin="round"/>
<path d="M488 221.531L479.828 219.686" stroke="black" stroke-width="0.842683" stroke-linecap="round" stroke-linejoin="round"/>
<path d="M419.795 269.707L353.897 251.039C351.802 250.817 349.695 251.324 347.932 252.476L240.701 320.918C240.244 321.213 239.889 321.641 239.684 322.144C239.479 322.647 239.433 323.201 239.554 323.731C239.674 324.261 239.955 324.741 240.357 325.107C240.76 325.472 241.265 325.705 241.805 325.774L331.984 353.832L419.795 269.707Z" fill="url(#paint18_linear_512_1448)" stroke="black" stroke-width="0.842683" stroke-linecap="round" stroke-linejoin="round"/>
<path d="M381.266 273.646L371.928 280.076L361.139 277.028L370.464 270.611L381.266 273.646Z" fill="black"/>
<path d="M375.45 291.621L384.775 285.192L395.576 288.239L386.238 294.668L375.45 291.621Z" fill="black"/>
<path d="M357.803 277.586L348.477 284.003L337.688 280.955L347.014 274.538L357.803 277.586Z" fill="black"/>
<path d="M346.928 285.068L337.602 291.485L326.813 288.437L336.139 282.021L346.928 285.068Z" fill="black"/>
<path d="M370.39 281.129L361.064 287.558L350.275 284.511L359.601 278.094L370.39 281.129Z" fill="black"/>
<path d="M393.853 277.202L384.527 283.631L373.726 280.584L383.064 274.154L393.853 277.202Z" fill="black"/>
<path d="M319.385 317.994L328.723 311.565L339.499 314.613L330.174 321.042L319.385 317.994Z" fill="black"/>
<path d="M331.984 321.55L341.31 315.121L352.099 318.168L342.761 324.585L331.984 321.55Z" fill="black"/>
<path d="M364.586 299.103L373.911 292.674L384.7 295.721L375.375 302.138L364.586 299.103Z" fill="black"/>
<path d="M308.521 325.477L317.847 319.06L328.636 322.095L319.31 328.524L308.521 325.477Z" fill="black"/>
<path d="M353.71 306.585L363.048 300.156L373.837 303.204L364.499 309.62L353.71 306.585Z" fill="black"/>
<path d="M342.848 314.068L352.173 307.638L362.962 310.686L353.636 317.115L342.848 314.068Z" fill="black"/>
<path d="M336.064 292.55L326.739 298.967L315.95 295.92L325.276 289.503L336.064 292.55Z" fill="black"/>
<path d="M382.977 284.684L373.651 291.113L362.862 288.066L372.188 281.649L382.977 284.684Z" fill="black"/>
<path d="M295.935 321.921L305.26 315.505L316.049 318.552L306.723 324.969L295.935 321.921Z" fill="black"/>
<path d="M328.537 299.475L337.863 293.058L348.651 296.093L339.326 302.522L328.537 299.475Z" fill="black"/>
<path d="M351.999 295.548L361.325 289.119L372.113 292.166L362.788 298.595L351.999 295.548Z" fill="black"/>
<path d="M397.189 276.657L402.645 272.891L410.023 274.96L405.708 279.06L397.189 276.657Z" fill="black"/>
<path d="M386.325 284.139L395.65 277.71L404.492 280.212L397.188 287.124L397.114 287.174L386.325 284.139Z" fill="black"/>
<path d="M359.526 288.623L350.188 295.04L339.4 291.993L348.738 285.576L359.526 288.623Z" fill="black"/>
<path d="M341.124 303.03L350.45 296.613L361.238 299.648L351.913 306.077L341.124 303.03Z" fill="black"/>
<path d="M294.211 310.884L303.536 304.467L314.325 307.514L305 313.931L294.211 310.884Z" fill="black"/>
<path d="M325.201 300.032L315.863 306.449L305.075 303.402L314.4 296.985L325.201 300.032Z" fill="black"/>
<path d="M306.798 314.439L316.123 308.022L326.912 311.07L317.587 317.487L306.798 314.439Z" fill="black"/>
<path d="M317.674 306.957L326.999 300.54L337.788 303.575L328.45 310.004L317.674 306.957Z" fill="black"/>
<path d="M330.261 310.512L339.586 304.095L350.375 307.13L341.05 313.56L330.261 310.512Z" fill="black"/>
<path d="M377.173 302.646L386.498 296.229L387.329 296.465L379.975 303.439L377.173 302.646Z" fill="black"/>
<path d="M294.385 322.987L305.174 326.034L293.988 333.727L283.472 330.494L294.385 322.987Z" fill="black"/>
<path d="M306.984 326.542L317.772 329.577L306.252 337.505L295.748 334.272L306.984 326.542Z" fill="black"/>
<path d="M355.434 317.61L364.76 311.194L370.179 312.717L362.813 319.704L355.434 317.61Z" fill="black"/>
<path d="M283.335 318.366L292.673 311.949L303.462 314.997L294.124 321.413L283.335 318.366Z" fill="black"/>
<path d="M344.571 325.105L353.897 318.676L361.598 320.856L354.244 327.83L344.571 325.105Z" fill="black"/>
<path d="M333.695 332.587L343.021 326.158L353.028 328.982L345.662 335.957L333.695 332.587Z" fill="black"/>
<path d="M321.108 329.032L330.434 322.603L341.223 325.65L331.897 332.079L321.108 329.032Z" fill="black"/>
<path d="M260.17 318.948L266.371 315.071L280.012 318.924L269.471 326.183L261.262 323.705C260.721 323.658 260.209 323.441 259.8 323.085C259.39 322.729 259.104 322.252 258.983 321.723C258.862 321.195 258.911 320.642 259.125 320.143C259.338 319.644 259.704 319.226 260.17 318.948Z" fill="black"/>
<path d="M332.158 333.64L344.447 337.109L334.775 346.276L320.278 341.816L332.158 333.64Z" fill="black"/>
<path d="M277.88 307.775L290.863 311.441L281.538 317.858L267.959 314.03L277.88 307.775Z" fill="black"/>
<path d="M281.798 319.431L292.587 322.479L281.724 329.961L271.208 326.728L281.798 319.431Z" fill="black"/>
<path d="M357.617 265.483L348.8 262.993L354.492 259.401L362.999 261.779L357.617 265.483Z" fill="black"/>
<path d="M308.013 338.05L319.571 330.085L330.359 333.132L318.529 341.283L308.013 338.05Z" fill="black"/>
<path d="M356.079 266.548L346.754 272.965L337.242 270.289L347.163 264.034L356.079 266.548Z" fill="black"/>
<path d="M334.341 281.513L325.015 287.93L314.152 284.87L324.06 278.614L334.341 281.513Z" fill="black"/>
<path d="M345.216 274.03L335.878 280.447L325.697 277.573L335.618 271.318L345.216 274.03Z" fill="black"/>
<path d="M323.478 288.995L314.152 295.412L302.607 292.166L312.515 285.898L323.478 288.995Z" fill="black"/>
<path d="M312.602 296.477L303.276 302.894L291.061 299.45L300.97 293.194L312.602 296.477Z" fill="black"/>
<path d="M289.424 300.478L301.738 303.959L292.413 310.376L279.516 306.746L289.424 300.478Z" fill="black"/>
<path d="M368.666 270.104L359.341 276.52L348.552 273.473L357.877 267.056L368.666 270.104Z" fill="black"/>
<path d="M390.454 293.516L388.544 295.313L388.048 295.164L390.454 293.516Z" fill="black"/>
<path d="M395.39 276.149L384.601 273.101L390.033 269.36L400.847 272.383L395.39 276.149Z" fill="black"/>
<path d="M382.803 272.593L372.014 269.546L377.421 265.817L388.234 268.852L382.803 272.593Z" fill="black"/>
<path d="M375.61 265.322L370.204 269.038L359.415 265.991L364.809 262.287L375.61 265.322Z" fill="black"/>
<path d="M366.31 310.141L375.636 303.711L378.761 304.591L371.395 311.565L366.31 310.141Z" fill="black"/>
<path d="M332.046 353.832L360.568 238.49C361.218 235.868 362.619 233.492 364.599 231.652L441.484 160.039C441.811 159.735 442.226 159.545 442.67 159.495C443.113 159.446 443.56 159.539 443.946 159.763C444.332 159.986 444.636 160.327 444.813 160.736C444.991 161.144 445.032 161.599 444.932 162.033L419.795 269.707L332.046 353.832Z" fill="url(#paint19_linear_512_1448)" stroke="black" stroke-width="0.842683" stroke-linecap="round" stroke-linejoin="round"/>
<path d="M375.152 226.932L366.36 234.613C366.36 234.613 363.62 235.158 360.879 248.871" stroke="black" stroke-width="0.421342" stroke-linecap="round" stroke-linejoin="round"/>
<path d="M359.229 255.994L343.022 326.158" stroke="black" stroke-width="0.421342" stroke-linecap="round" stroke-linejoin="round"/>
<path d="M406.687 223.798C402.88 233.04 403.228 241.946 407.469 243.693C411.71 245.44 418.245 239.357 422.052 230.066C425.859 220.776 425.512 211.918 421.271 210.184C417.03 208.45 410.494 214.557 406.687 223.798Z" fill="url(#paint20_linear_512_1448)"/>
<path opacity="0.6" d="M406.687 223.798C402.88 233.04 403.228 241.946 407.469 243.693C411.71 245.44 418.245 239.357 422.052 230.066C425.859 220.776 425.512 211.918 421.271 210.184C417.03 208.45 410.494 214.557 406.687 223.798Z" fill="white"/>
<path d="M409.466 238.857C406.451 237.618 406.204 231.284 408.913 224.711C411.623 218.138 416.263 213.815 419.277 215.055C422.292 216.295 422.539 222.628 419.83 229.201C417.12 235.774 412.48 240.097 409.466 238.857Z" stroke="black" stroke-width="0.842683" stroke-miterlimit="10"/>
<path d="M400.81 261.692C398.826 266.486 399.644 271.367 402.62 272.593C405.596 273.82 409.614 270.921 411.598 266.139C413.583 261.358 412.752 256.465 409.776 255.238C406.799 254.012 402.781 256.911 400.81 261.692Z" fill="black"/>
<path d="M404.914 269.806C406.786 269.806 408.82 268.109 409.874 265.458C410.468 264.095 410.673 262.595 410.469 261.122C410.415 260.508 410.201 259.919 409.849 259.413C409.496 258.907 409.018 258.501 408.46 258.236C406.365 257.369 403.686 259.19 402.372 262.374C401.069 265.557 401.689 268.729 403.785 269.596C404.144 269.738 404.528 269.809 404.914 269.806ZM407.394 259.264C407.607 259.262 407.818 259.304 408.014 259.388C408.37 259.579 408.672 259.858 408.889 260.199C409.106 260.539 409.232 260.93 409.254 261.333C409.431 262.596 409.251 263.884 408.733 265.049C407.729 267.527 405.683 269.088 404.269 268.506C402.855 267.923 402.52 265.359 403.537 262.906C404.467 260.738 406.154 259.264 407.394 259.264Z" fill="url(#paint21_linear_512_1448)"/>
<g opacity="0.5">
<path d="M404.914 269.806C406.786 269.806 408.82 268.109 409.874 265.458C410.468 264.095 410.673 262.595 410.469 261.122C410.415 260.508 410.201 259.919 409.849 259.413C409.496 258.907 409.018 258.501 408.46 258.236C406.365 257.369 403.686 259.19 402.372 262.374C401.069 265.557 401.689 268.729 403.785 269.596C404.144 269.738 404.528 269.809 404.914 269.806ZM407.394 259.264C407.607 259.262 407.818 259.304 408.014 259.388C408.37 259.579 408.672 259.858 408.889 260.199C409.106 260.539 409.232 260.93 409.254 261.333C409.431 262.596 409.251 263.884 408.733 265.049C407.729 267.527 405.683 269.088 404.269 268.506C402.855 267.923 402.52 265.359 403.537 262.906C404.467 260.738 406.154 259.264 407.394 259.264Z" fill="white"/>
</g>
<path d="M378.698 263.228L385.754 274.377C385.936 274.649 386.033 274.968 386.033 275.294C386.033 275.62 385.936 275.94 385.754 276.211L370.65 298.211C370.518 298.407 370.346 298.572 370.146 298.697C369.945 298.822 369.721 298.903 369.487 298.936C369.253 298.968 369.015 298.952 368.788 298.887C368.562 298.822 368.351 298.71 368.17 298.558L360.345 292.179C360.033 291.928 359.822 291.573 359.752 291.179C359.681 290.785 359.755 290.379 359.96 290.035L375.846 263.29C375.988 263.041 376.193 262.832 376.439 262.685C376.686 262.538 376.967 262.457 377.255 262.451C377.542 262.445 377.826 262.513 378.079 262.649C378.332 262.786 378.545 262.985 378.698 263.228Z" fill="black"/>
<path d="M390.975 278.007C390.975 278.007 371.431 274.761 358.001 302.262L354.665 298.162C354.665 298.162 367.599 276.644 378.14 274.724C388.681 272.804 392.513 272.792 392.513 272.792L390.975 278.007Z" fill="url(#paint22_linear_512_1448)"/>
<path opacity="0.5" d="M390.975 278.007C390.975 278.007 371.431 274.761 358.001 302.262L354.665 298.162C354.665 298.162 367.599 276.644 378.14 274.724C388.681 272.804 392.513 272.792 392.513 272.792L390.975 278.007Z" fill="white"/>
<path d="M475.265 218.657L443.37 211.46" stroke="black" stroke-width="0.842683" stroke-linecap="round" stroke-linejoin="round"/>
<path d="M272.758 288.029C276.581 288.631 280.436 289.016 284.303 289.181C290.293 289.416 292.835 289.416 291.917 290.803C290.999 292.191 283.832 293.566 281.302 294.024C278.772 294.483 272.758 288.029 272.758 288.029Z" fill="white" stroke="black" stroke-width="0.842683" stroke-miterlimit="10"/>
<path d="M47.8551 338.137L58.5322 332.562" stroke="black" stroke-width="0.842683" stroke-linecap="round" stroke-linejoin="round"/>
<path d="M261.138 207.942C261.138 207.942 258.893 204.015 257.951 208.883L261.138 207.942Z" fill="black"/>
<path d="M65.1424 329.106L325.462 193.25" stroke="black" stroke-width="0.842683" stroke-linecap="round" stroke-linejoin="round"/>
<path d="M318.616 246.455L263.916 281.686L218.925 263.352L279.529 232.581L318.616 246.455Z" fill="black" stroke="black" stroke-width="0.842683" stroke-linecap="round" stroke-linejoin="round"/>
<path d="M283.46 239.109L305.261 246.802" stroke="white" stroke-width="0.421342" stroke-linecap="round" stroke-linejoin="round"/>
<path d="M301.838 249.367L262.502 274.142L230.446 261.754" stroke="white" stroke-width="0.421342" stroke-linecap="round" stroke-linejoin="round"/>
<path d="M93.2295 79.9768C93.2295 79.9768 61.9048 84.9319 51.8229 101.705C41.7409 118.478 48.9459 144.839 52.3065 153.944C55.3447 162.206 46.3665 169.106 40.8481 173.591C28.4472 183.65 22.0607 197.846 28.5092 213.293C32.5271 222.906 50.3968 227.217 47.9786 238.787C45.5604 250.357 35.0321 266.585 48.4622 278.577C62.6364 291.212 83.904 284.696 96.3297 272.891C110.305 259.611 115.117 236.508 107.962 218.657C99.2811 197.09 94.5316 183.191 102.691 174.061C110.851 164.932 121.404 159.196 121.404 146.263C121.404 133.331 109.884 129.49 105.085 116.533C100.286 103.575 107.007 90.1718 107.007 90.1718L93.2295 79.9768Z" fill="black" stroke="black" stroke-width="0.842683" stroke-linecap="round" stroke-linejoin="round"/>
<path d="M63.8899 102.349C57.8382 106.92 52.3322 114.613 54.242 127.125C58.1111 152.519 76.8984 154.179 64.7455 170.184C52.5927 186.189 41.5311 179.004 43.7508 198.874C45.9706 218.744 53.1383 225.917 53.1383 225.917" stroke="white" stroke-width="0.842683" stroke-miterlimit="10"/>
<path d="M76.8486 96.2419C74.426 96.8111 72.0725 97.6418 69.8297 98.7195" stroke="white" stroke-width="0.842683" stroke-miterlimit="10"/>
<path d="M82.9248 103.427C82.9248 103.427 66.9029 107.837 61.9301 121.079C56.9573 134.322 76.8112 145.372 77.952 153.647" stroke="white" stroke-width="0.842683" stroke-miterlimit="10"/>
<path d="M83.6312 319.456C83.8544 311.863 83.9536 301.729 83.4948 291.039C82.5275 268.989 56.1384 239.741 55.1835 234.476C54.2287 229.212 56.622 228.283 56.622 228.283L108.929 205.749C133.247 221.705 139.162 268.109 140.613 289.763L83.6312 319.456Z" fill="url(#paint23_linear_512_1448)" stroke="black" stroke-width="0.842683" stroke-linecap="round" stroke-linejoin="round"/>
<path d="M62.3017 229.682C62.3017 229.682 57.9118 232.42 62.3017 236.805C66.6916 241.191 78.7701 259.834 83.7305 270.797" stroke="black" stroke-width="0.421342" stroke-linecap="round" stroke-linejoin="round"/>
<path d="M85.9006 276.248C85.9006 276.248 89.7449 285.018 89.1868 293.789C88.6288 302.559 88.6412 310.785 88.6412 310.785" stroke="black" stroke-width="0.421342" stroke-linecap="round" stroke-linejoin="round"/>
<path d="M188.506 217.778C186.2 223.773 183.422 236.669 185.27 244.04C186.224 247.868 189.424 255.907 192.264 262.758L121.74 299.574C121.814 284.907 121.628 261.754 119.756 257.456C116.99 251.002 94.8422 190.178 96.1939 176.353C97.5456 162.529 124.332 142.708 124.332 142.708L120.227 109.014L144.669 123.767C144.669 123.767 147.447 137.121 150.212 140.355C152.978 143.588 175.584 148.184 182.045 156.459C188.506 164.734 186.2 190.104 186.2 191.479C186.2 192.854 190.813 211.832 188.506 217.778Z" fill="white"/>
<mask id="mask2_512_1448" style="mask-type:luminance" maskUnits="userSpaceOnUse" x="96" y="109" width="97" height="191">
<path d="M188.506 217.778C186.2 223.773 183.422 236.669 185.27 244.04C186.224 247.868 189.424 255.907 192.264 262.758L121.74 299.574C121.814 284.907 121.628 261.754 119.756 257.456C116.99 251.002 94.8422 190.178 96.1939 176.353C97.5456 162.529 124.332 142.708 124.332 142.708L120.227 109.014L144.669 123.767C144.669 123.767 147.447 137.121 150.212 140.355C152.978 143.588 175.584 148.184 182.045 156.459C188.506 164.734 186.2 190.104 186.2 191.479C186.2 192.854 190.813 211.832 188.506 217.778Z" fill="white"/>
</mask>
<g mask="url(#mask2_512_1448)">
<g style="mix-blend-mode:multiply" opacity="0.5">
<path d="M96.231 176.304C97.6199 162.479 124.369 142.659 124.369 142.659L120.227 109.014L144.669 123.767C144.669 123.767 145.475 127.62 146.641 131.696C145.066 131.559 143.305 131.336 141.333 130.99C132.008 129.342 127.06 126.034 127.06 126.034L132.02 146.871C132.02 146.871 106.772 161.736 100.187 179.772C99.294 182.25 98.3391 184.566 97.3594 186.871C96.5246 183.412 96.1453 179.86 96.231 176.304Z" fill="url(#paint24_linear_512_1448)"/>
</g>
</g>
<path d="M188.506 217.778C186.2 223.773 183.422 236.669 185.27 244.04C186.224 247.868 189.424 255.907 192.264 262.758L121.74 299.574C121.814 284.907 121.628 261.754 119.756 257.456C116.99 251.002 94.8422 190.178 96.1939 176.353C97.5456 162.529 124.332 142.708 124.332 142.708L120.227 109.014L144.669 123.767C144.669 123.767 147.447 137.121 150.212 140.355C152.978 143.588 175.584 148.184 182.045 156.459C188.506 164.734 186.2 190.104 186.2 191.479C186.2 192.854 190.813 211.832 188.506 217.778Z" stroke="black" stroke-width="0.842683" stroke-linecap="round" stroke-linejoin="round"/>
<path d="M188.506 217.778C186.2 223.773 183.422 236.669 185.27 244.04C186.224 247.868 189.424 255.907 192.264 262.758L121.74 299.574C121.814 284.907 121.628 261.754 119.756 257.456C116.99 251.002 94.8422 190.178 96.1939 176.353C97.0496 167.744 107.739 156.83 115.688 149.806C123.513 158.094 140.49 173.554 152.891 166.666C164.052 160.472 163.345 151.058 161.695 145.458C169.235 148.233 178.251 151.776 181.959 156.533C188.419 164.833 186.113 190.178 186.113 191.553C186.113 192.928 190.813 211.832 188.506 217.778Z" fill="black" stroke="black" stroke-width="0.842683" stroke-linecap="round" stroke-linejoin="round"/>
<path d="M147.31 201.401L162.662 194.204C162.662 194.204 166.99 187.019 169.383 187.019C171.777 187.019 173.228 197.09 173.228 197.09C173.228 197.09 181.375 204.758 178.498 212.426C175.621 220.094 165.068 231.603 152.109 227.292C139.15 222.981 142.994 209.565 142.994 209.565C142.994 209.565 137.712 200.46 137.712 198.54C137.712 196.62 147.31 201.401 147.31 201.401Z" fill="white" stroke="black" stroke-width="0.842683" stroke-linecap="round" stroke-linejoin="round"/>
<path d="M180.197 52.7857C180.197 52.7857 176.96 69.3853 177.432 80.9059C177.903 92.4264 182.503 97.0099 181.152 102.101C179.8 107.193 163.158 126.071 153.014 127.905C142.87 129.738 118.875 114.08 111.955 107.168C105.035 100.255 104.117 90.1223 105.035 85.9724C105.953 81.8225 109.648 48.6482 123.488 35.2819C137.327 21.9155 173.736 23.303 180.197 52.7857Z" fill="white"/>
<mask id="mask3_512_1448" style="mask-type:luminance" maskUnits="userSpaceOnUse" x="104" y="27" width="78" height="102">
<path d="M180.197 52.7857C180.197 52.7857 176.96 69.3853 177.432 80.9059C177.903 92.4264 182.503 97.0099 181.152 102.101C179.8 107.193 163.158 126.071 153.014 127.905C142.87 129.738 118.875 114.08 111.955 107.168C105.035 100.255 104.117 90.1223 105.035 85.9724C105.953 81.8225 109.648 48.6482 123.488 35.2819C137.327 21.9155 173.736 23.303 180.197 52.7857Z" fill="white"/>
</mask>
<g mask="url(#mask3_512_1448)">
<g style="mix-blend-mode:multiply" opacity="0.5">
<path d="M123.413 35.2819C128.584 30.3268 136.918 27.3538 145.66 27.168L146.231 44.3621C146.231 44.3621 148.984 61.3581 139.1 75.0589C129.217 88.7597 120.437 92.6123 119.346 98.0877C118.254 103.563 123.215 109.014 135.814 118.379C140.741 122.104 146.02 125.34 151.575 128.041C140.774 128.425 118.515 113.795 111.893 107.168C104.973 100.256 104.055 90.1223 104.973 85.9725C105.891 81.8226 109.611 48.6483 123.413 35.2819Z" fill="url(#paint25_linear_512_1448)"/>
</g>
</g>
<path d="M180.197 52.7857C180.197 52.7857 176.96 69.3853 177.432 80.9059C177.903 92.4264 182.503 97.0099 181.152 102.101C179.8 107.193 163.158 126.071 153.014 127.905C142.87 129.738 118.875 114.08 111.955 107.168C105.035 100.255 104.117 90.1223 105.035 85.9724C105.953 81.8225 109.648 48.6482 123.488 35.2819C137.327 21.9155 173.736 23.303 180.197 52.7857Z" stroke="black" stroke-width="0.842683" stroke-linecap="round" stroke-linejoin="round"/>
<path d="M162.663 86.8892C162.663 86.8892 164.051 95.6473 166.383 98.4098C164.573 99.987 162.313 100.957 159.922 101.185" stroke="black" stroke-width="0.842683" stroke-linecap="round" stroke-linejoin="round"/>
<path d="M161.745 109.014C158.74 110.344 155.464 110.955 152.181 110.795C148.897 110.636 145.696 109.712 142.834 108.097" stroke="black" stroke-width="0.842683" stroke-linecap="round" stroke-linejoin="round"/>
<path d="M145.14 82.281C145.14 83.817 145.859 85.0558 146.752 85.0558C147.645 85.0558 148.364 83.817 148.364 82.281C148.364 80.7449 147.645 79.5185 146.752 79.5185C145.859 79.5185 145.14 80.7573 145.14 82.281Z" fill="black"/>
<path d="M167.97 78.6018C167.97 80.1255 168.689 81.3642 169.582 81.3642C170.475 81.3642 171.194 80.1255 171.194 78.6018C171.194 77.0781 170.475 75.8393 169.582 75.8393C168.689 75.8393 167.97 77.0781 167.97 78.6018Z" fill="black"/>
<path d="M174.195 66.6229C172.902 65.8162 171.459 65.2777 169.953 65.0393C168.447 64.801 166.908 64.8677 165.428 65.2355" stroke="black" stroke-width="0.842683" stroke-linecap="round" stroke-linejoin="round"/>
<path d="M152.519 67.0812C152.519 67.0812 149.753 65.6938 143.751 69.3853" stroke="black" stroke-width="0.842683" stroke-linecap="round" stroke-linejoin="round"/>
<path d="M149.753 40.3485C149.753 40.3485 162.663 50.9524 169.124 57.394C175.584 63.8356 178.35 68.4563 188.035 64.3188C197.72 60.1813 204.652 45.8734 191.755 28.8279C178.858 11.7824 153.92 6.70347 129.478 13.6158C105.036 20.5282 94.867 36.1986 93.0317 53.2565C91.1963 70.3144 94.8918 89.1933 103.572 94.2723C112.253 99.3512 131.722 78.6018 138.642 65.6938C142.978 57.5363 146.692 49.0639 149.753 40.3485Z" fill="black" stroke="black" stroke-width="0.842683" stroke-linecap="round" stroke-linejoin="round"/>
<path d="M149.753 40.3485C149.753 40.3485 184.587 45.477 186.236 53.1945C187.886 60.9121 177.394 58.7195 177.394 58.7195" stroke="white" stroke-width="0.842683" stroke-miterlimit="10"/>
<path d="M190.726 45.4399C193.082 50.4693 191.21 53.752 191.21 53.752" stroke="white" stroke-width="0.842683" stroke-miterlimit="10"/>
<path d="M114.969 23.9472C114.969 23.9472 148.674 18.4347 148.674 33.3247C148.674 33.3247 169.111 26.1522 182.368 36.0872C184.357 37.5361 186.183 39.1977 187.812 41.0423" stroke="white" stroke-width="0.842683" stroke-miterlimit="10"/>
<path d="M146.976 36.6445C146.976 36.6445 138.382 64.3435 120.45 71.4169" stroke="white" stroke-width="0.842683" stroke-miterlimit="10"/>
<path d="M129.094 44.0896C122.186 49.788 112.303 55.412 100.572 54.8545" stroke="white" stroke-width="0.842683" stroke-miterlimit="10"/>
<path d="M139.832 32.7796C138.217 34.9985 136.443 37.0975 134.524 39.0602" stroke="white" stroke-width="0.842683" stroke-miterlimit="10"/>
<path d="M183.422 68.927L129.453 78.1435C129.453 78.1435 129.453 86.3441 131.76 90.5312C134.066 94.7182 136.832 94.7678 142.834 94.7678C148.836 94.7678 157.182 91.0515 157.591 89.7012C158.546 86.4309 157.901 75.6411 157.901 75.6411L162.204 74.9474C162.204 74.9474 161.646 87.521 163.953 88.9084C166.259 90.2958 181.487 87.521 184.253 83.8418C187.018 80.1627 185.27 68.4563 183.422 68.927Z" stroke="black" stroke-width="0.842683" stroke-linecap="round" stroke-linejoin="round"/>
<path d="M129.453 78.1434L105.457 73.9935V77.2143L129.453 83.21V78.1434Z" fill="url(#paint26_linear_512_1448)" stroke="black" stroke-width="0.842683" stroke-linecap="round" stroke-linejoin="round"/>
<path d="M87.7481 81.0119C85.8734 69.3597 90.2686 58.9642 97.5648 57.7929C104.861 56.6215 112.296 65.1179 114.17 76.77C116.045 88.4222 111.65 98.8177 104.353 99.989C97.0572 101.16 89.6227 92.664 87.7481 81.0119Z" fill="url(#paint27_linear_512_1448)" stroke="black" stroke-width="0.842683" stroke-linecap="round" stroke-linejoin="round"/>
<path d="M83.8919 81.4757C85.4668 91.2868 90.9356 98.5584 96.082 97.7284C101.228 96.8984 104.143 88.2889 102.568 78.4779C100.993 68.6668 95.5363 61.4076 90.3776 62.2376C85.2188 63.0675 82.317 71.677 83.8919 81.4757Z" fill="url(#paint28_linear_512_1448)" stroke="black" stroke-width="0.842683" stroke-linecap="round" stroke-linejoin="round"/>
<path d="M91.1714 40.3485C90.28 53.2447 91.6865 66.1966 95.3257 78.6018C95.3257 78.6018 95.7846 86.0344 88.8649 82.7517C81.9452 79.4689 82.8628 51.4107 83.7929 39.8901C84.723 28.3696 93.4656 31.5904 91.1714 40.3485Z" fill="white" stroke="black" stroke-width="0.842683" stroke-linecap="round" stroke-linejoin="round"/>
<path d="M116.99 18.6824C116.99 18.6824 106.387 15.9199 100.869 25.6071C95.3506 35.2943 96.2558 44.04 88.4681 44.9567C80.6803 45.8734 80.1594 37.1277 84.3137 26.0654C88.468 15.0032 97.2231 6.70344 109.227 5.78675C121.231 4.87005 127.134 14.5449 127.134 14.5449C127.134 14.5449 120.686 15.4616 116.99 18.6824Z" fill="url(#paint29_linear_512_1448)" stroke="black" stroke-width="0.842683" stroke-linecap="round" stroke-linejoin="round"/>
<path d="M117.92 191.045L149.753 263.402C149.753 263.402 236.485 279.506 244.323 279.506C252.16 279.506 267.884 285.031 271.084 286.939C274.283 288.846 305.645 303.228 299.606 304.12C295.886 304.678 286.262 299.388 286.262 299.388C286.262 299.388 301.491 306.821 300.114 309.063C298.738 311.305 280.273 302.151 280.273 302.151C280.273 302.151 297.15 312.061 293.691 312.618C290.541 313.176 286.734 311.379 283.497 309.063C280.674 307.332 277.634 305.983 274.457 305.049C274.457 305.049 281.897 310.004 282.778 312.259C283.658 314.514 280.93 313.176 278.165 312.259C272.99 310.03 267.987 307.421 263.197 304.455C261.361 303.067 255.818 300.305 252.123 297.084L244.744 290.63C244.744 290.63 195.389 292.005 172.819 291.088C150.249 290.172 139.138 287.868 130.83 279.568C122.521 271.268 98.9965 218.732 93.4657 204.449C87.935 190.166 91.618 181.866 97.186 172.241" fill="white"/>
<mask id="mask4_512_1448" style="mask-type:luminance" maskUnits="userSpaceOnUse" x="90" y="172" width="211" height="142">
<path d="M117.92 191.045L149.753 263.402C149.753 263.402 236.485 279.506 244.323 279.506C252.16 279.506 267.884 285.031 271.084 286.939C274.283 288.846 305.645 303.228 299.606 304.12C295.886 304.678 286.262 299.388 286.262 299.388C286.262 299.388 301.491 306.821 300.114 309.063C298.738 311.305 280.273 302.151 280.273 302.151C280.273 302.151 297.15 312.061 293.691 312.618C290.541 313.176 286.734 311.379 283.497 309.063C280.674 307.332 277.634 305.983 274.457 305.049C274.457 305.049 281.897 310.004 282.778 312.259C283.658 314.514 280.93 313.176 278.165 312.259C272.99 310.03 267.987 307.421 263.197 304.455C261.361 303.067 255.818 300.305 252.123 297.084L244.744 290.63C244.744 290.63 195.389 292.005 172.819 291.088C150.249 290.172 139.138 287.868 130.83 279.568C122.521 271.268 98.9965 218.732 93.4657 204.449C87.935 190.166 91.618 181.866 97.186 172.241" fill="white"/>
</mask>
<g mask="url(#mask4_512_1448)">
<g style="mix-blend-mode:multiply" opacity="0.5">
<path d="M116.631 238.453C131.512 266.412 144.074 275.183 157.244 281.81C170.414 288.437 242.872 290.035 242.872 290.035L239.821 290.766C226.738 291.088 191.061 291.844 172.857 291.101C150.25 290.184 139.176 287.88 130.867 279.58C122.559 271.28 99.0341 218.744 93.5033 204.461C90.9363 197.846 90.3659 192.519 91.0231 187.738L94.1606 189.707C100.661 206.393 108.164 222.672 116.631 238.453Z" fill="url(#paint30_linear_512_1448)"/>
</g>
</g>
<path d="M117.92 191.045L149.753 263.402C149.753 263.402 236.485 279.506 244.323 279.506C252.16 279.506 267.884 285.031 271.084 286.939C274.283 288.846 305.645 303.228 299.606 304.12C295.886 304.678 286.262 299.388 286.262 299.388C286.262 299.388 301.491 306.821 300.114 309.063C298.738 311.305 280.273 302.151 280.273 302.151C280.273 302.151 297.15 312.061 293.691 312.618C290.541 313.176 286.734 311.379 283.497 309.063C280.674 307.332 277.634 305.983 274.457 305.049C274.457 305.049 281.897 310.004 282.778 312.259C283.658 314.514 280.93 313.176 278.165 312.259C272.99 310.03 267.987 307.421 263.197 304.455C261.361 303.067 255.818 300.305 252.123 297.084L244.744 290.63C244.744 290.63 195.389 292.005 172.819 291.088C150.249 290.172 139.138 287.868 130.83 279.568C122.521 271.268 98.9965 218.732 93.4657 204.449C87.9349 190.166 91.618 181.866 97.186 172.241" stroke="black" stroke-width="0.842683" stroke-miterlimit="10"/>
<path d="M118.454 189.224L128.139 214.309C121.021 210.519 107.665 205.427 97.0124 213.07C95.5119 209.552 94.2842 206.579 93.4658 204.461C87.9226 190.178 91.618 181.878 97.186 172.253" fill="black"/>
<path d="M118.454 189.224L128.139 214.309C121.021 210.519 107.665 205.427 97.0124 213.07C95.5119 209.552 94.2842 206.579 93.4658 204.461C87.9226 190.178 91.618 181.878 97.186 172.253" stroke="black" stroke-width="0.842683" stroke-linecap="round" stroke-linejoin="round"/>
<path d="M186.993 222.51C196.355 225.248 233.335 236.062 236.77 236.867C238.897 237.385 241.055 237.77 243.231 238.019C243.231 238.019 256.152 232.482 259.612 229.955C263.072 227.428 267.226 229.026 269.297 229.955C271.368 230.884 273.018 237.326 269.062 237.326C265.106 237.326 264.449 237.09 260.071 240.782C255.694 244.473 255.681 246.319 252.457 247.694C249.233 249.069 243.913 248.153 241.147 247.694C238.667 247.285 195.785 244.436 185.232 243.879C183.855 238.081 185.232 229.026 186.993 222.51Z" fill="white"/>
<mask id="mask5_512_1448" style="mask-type:luminance" maskUnits="userSpaceOnUse" x="184" y="222" width="88" height="27">
<path d="M186.993 222.51C196.355 225.248 233.335 236.062 236.77 236.867C238.897 237.385 241.055 237.77 243.231 238.019C243.231 238.019 256.152 232.482 259.612 229.955C263.072 227.428 267.226 229.026 269.297 229.955C271.368 230.884 273.018 237.326 269.062 237.326C265.106 237.326 264.449 237.09 260.071 240.782C255.694 244.473 255.681 246.319 252.457 247.694C249.233 249.069 243.913 248.153 241.147 247.694C238.667 247.285 195.785 244.436 185.232 243.879C183.855 238.081 185.232 229.026 186.993 222.51Z" fill="white"/>
</mask>
<g mask="url(#mask5_512_1448)">
<g style="mix-blend-mode:multiply" opacity="0.5">
<path d="M185.517 229.174L241.147 247.756C238.667 247.347 195.785 244.498 185.232 243.941C184.289 239.902 184.637 234.39 185.517 229.174Z" fill="url(#paint31_linear_512_1448)"/>
</g>
</g>
<path d="M186.993 222.51C196.355 225.248 233.335 236.062 236.77 236.867C238.897 237.385 241.055 237.77 243.231 238.019C243.231 238.019 256.152 232.482 259.612 229.955C263.072 227.428 267.226 229.026 269.297 229.955C271.368 230.884 273.018 237.326 269.062 237.326C265.106 237.326 264.449 237.09 260.071 240.782C255.694 244.473 255.681 246.319 252.457 247.694C249.233 249.069 243.913 248.153 241.147 247.694C238.667 247.285 195.785 244.436 185.232 243.879C183.855 238.081 185.232 229.026 186.993 222.51Z" stroke="black" stroke-width="0.842683" stroke-linecap="round" stroke-linejoin="round"/>
<path d="M279.454 237.561C279.454 237.561 284.303 240.323 285.654 243.544C287.006 246.765 284.278 245.848 283.348 245.167C282.418 244.486 278.499 241.24 278.499 241.24L279.454 237.561Z" fill="white" stroke="black" stroke-width="0.842683" stroke-linecap="round" stroke-linejoin="round"/>
<path d="M278.065 235.245C278.973 235.826 279.691 236.66 280.132 237.644C280.572 238.627 280.716 239.718 280.545 240.782C280.086 244.696 275.932 250.457 275.461 248.153C274.99 245.848 278.065 235.245 278.065 235.245Z" fill="white" stroke="black" stroke-width="0.842683" stroke-linecap="round" stroke-linejoin="round"/>
<path d="M272.299 231.788C272.299 231.788 276.689 232.94 278.065 235.244C279.442 237.549 277.148 247.471 275.523 248.152C275.179 248.307 274.803 248.381 274.425 248.369C274.048 248.357 273.678 248.258 273.344 248.081C273.01 247.904 272.722 247.654 272.5 247.348C272.278 247.043 272.128 246.691 272.063 246.319C271.604 244.696 272.299 231.788 272.299 231.788Z" fill="white" stroke="black" stroke-width="0.842683" stroke-linecap="round" stroke-linejoin="round"/>
<path d="M266.756 229.484C266.756 229.484 272.534 229.484 273.216 232.259C273.898 235.034 275.064 247 273.911 248.846C272.758 250.692 270.91 249.998 269.992 247.694C269.074 245.39 266.756 229.484 266.756 229.484Z" fill="white" stroke="black" stroke-width="0.842683" stroke-linecap="round" stroke-linejoin="round"/>
<path d="M261.51 208.016L270.984 251.113L269.496 256.613C269.474 256.698 269.43 256.774 269.368 256.836C269.307 256.898 269.23 256.942 269.145 256.965C269.061 256.988 268.972 256.988 268.888 256.965C268.804 256.942 268.727 256.898 268.665 256.836L264.524 252.724L257.604 209.168L261.51 208.016Z" fill="black"/>
<path d="M252.222 242.801C252.222 242.801 257.529 244.882 261.684 246.728C265.838 248.574 269.992 249.49 269.534 252.03C269.075 254.569 267.227 253.64 264.226 252.724C260.108 251.289 255.853 250.284 251.527 249.726C245.761 249.032 241.148 243.73 241.148 243.73" fill="white"/>
<path d="M252.222 242.801C252.222 242.801 257.529 244.882 261.684 246.728C265.838 248.574 269.992 249.49 269.534 252.03C269.075 254.569 267.227 253.64 264.226 252.724C260.108 251.289 255.853 250.284 251.527 249.726C245.761 249.032 241.148 243.73 241.148 243.73" stroke="black" stroke-width="0.842683" stroke-linecap="round" stroke-linejoin="round"/>
<path d="M270.86 251.782L269.893 255.845C269.846 256.041 269.748 256.221 269.609 256.367C269.47 256.514 269.295 256.621 269.102 256.679C268.909 256.736 268.704 256.742 268.508 256.696C268.311 256.65 268.131 256.553 267.983 256.415L265.714 254.26" stroke="white" stroke-width="0.421342" stroke-linecap="round" stroke-linejoin="round"/>
<path d="M270.972 251.113L266.073 229.286" stroke="white" stroke-width="0.421342" stroke-linecap="round" stroke-linejoin="round"/>
<path d="M440.455 165.526L377.893 223.65" stroke="black" stroke-width="0.421342" stroke-linecap="round" stroke-linejoin="round"/>
<defs>
<linearGradient id="paint0_linear_512_1448" x1="356.141" y1="262.621" x2="356.141" y2="367.508" gradientUnits="userSpaceOnUse">
<stop stop-color="#7DFFAF"/>
<stop offset="1" stop-color="#9955E8"/>
</linearGradient>
<linearGradient id="paint1_linear_512_1448" x1="165.167" y1="351.813" x2="165.167" y2="378.248" gradientUnits="userSpaceOnUse">
<stop stop-color="#7DFFAF"/>
<stop offset="1" stop-color="#9955E8"/>
</linearGradient>
<linearGradient id="paint2_linear_512_1448" x1="182.305" y1="285.749" x2="182.305" y2="299.574" gradientUnits="userSpaceOnUse">
<stop stop-color="#7DFFAF"/>
<stop offset="1" stop-color="#9955E8"/>
</linearGradient>
<linearGradient id="paint3_linear_512_1448" x1="233.558" y1="244.449" x2="233.558" y2="252.711" gradientUnits="userSpaceOnUse">
<stop stop-color="#7DFFAF"/>
<stop offset="1" stop-color="#9955E8"/>
</linearGradient>
<linearGradient id="paint4_linear_512_1448" x1="99.0585" y1="365.452" x2="99.0585" y2="396" gradientUnits="userSpaceOnUse">
<stop stop-color="#7DFFAF"/>
<stop offset="1" stop-color="#9955E8"/>
</linearGradient>
<linearGradient id="paint5_linear_512_1448" x1="218.857" y1="320.076" x2="218.857" y2="349.137" gradientUnits="userSpaceOnUse">
<stop stop-color="#7DFFAF"/>
<stop offset="1" stop-color="#9955E8"/>
</linearGradient>
<linearGradient id="paint6_linear_512_1448" x1="200.43" y1="358.837" x2="200.43" y2="381.122" gradientUnits="userSpaceOnUse">
<stop stop-color="#7DFFAF"/>
<stop offset="1" stop-color="#9955E8"/>
</linearGradient>
<linearGradient id="paint7_linear_512_1448" x1="102.177" y1="354.86" x2="102.177" y2="387.799" gradientUnits="userSpaceOnUse">
<stop stop-color="#7DFFAF"/>
<stop offset="1" stop-color="#9955E8"/>
</linearGradient>
<linearGradient id="paint8_linear_512_1448" x1="102.196" y1="339.041" x2="102.196" y2="370.679" gradientUnits="userSpaceOnUse">
<stop stop-color="#7DFFAF"/>
<stop offset="1" stop-color="#9955E8"/>
</linearGradient>
<linearGradient id="paint9_linear_512_1448" x1="102.195" y1="341.407" x2="102.195" y2="368.313" gradientUnits="userSpaceOnUse">
<stop stop-color="#7DFFAF"/>
<stop offset="1" stop-color="#9955E8"/>
</linearGradient>
<linearGradient id="paint10_linear_512_1448" x1="102.698" y1="317.343" x2="102.698" y2="362.757" gradientUnits="userSpaceOnUse">
<stop stop-color="#7DFFAF"/>
<stop offset="1" stop-color="#9955E8"/>
</linearGradient>
<linearGradient id="paint11_linear_512_1448" x1="102.698" y1="317.343" x2="102.698" y2="362.757" gradientUnits="userSpaceOnUse">
<stop stop-color="#7DFFAF"/>
<stop offset="1" stop-color="#9955E8"/>
</linearGradient>
<linearGradient id="paint12_linear_512_1448" x1="163.494" y1="331.386" x2="163.494" y2="356.421" gradientUnits="userSpaceOnUse">
<stop stop-color="#7DFFAF"/>
<stop offset="1" stop-color="#9955E8"/>
</linearGradient>
<linearGradient id="paint13_linear_512_1448" x1="163.32" y1="307.23" x2="163.32" y2="331.274" gradientUnits="userSpaceOnUse">
<stop stop-color="#7DFFAF"/>
<stop offset="1" stop-color="#9955E8"/>
</linearGradient>
<linearGradient id="paint14_linear_512_1448" x1="163.32" y1="307.23" x2="163.32" y2="331.274" gradientUnits="userSpaceOnUse">
<stop stop-color="#7DFFAF"/>
<stop offset="1" stop-color="#9955E8"/>
</linearGradient>
<linearGradient id="paint15_linear_512_1448" x1="163.32" y1="301.407" x2="163.32" y2="322.404" gradientUnits="userSpaceOnUse">
<stop stop-color="#7DFFAF"/>
<stop offset="1" stop-color="#9955E8"/>
</linearGradient>
<linearGradient id="paint16_linear_512_1448" x1="346.951" y1="156.888" x2="346.951" y2="177.892" gradientUnits="userSpaceOnUse">
<stop stop-color="#7DFFAF"/>
<stop offset="1" stop-color="#9955E8"/>
</linearGradient>
<linearGradient id="paint17_linear_512_1448" x1="345.932" y1="160.13" x2="345.932" y2="165.396" gradientUnits="userSpaceOnUse">
<stop stop-color="#7DFFAF"/>
<stop offset="1" stop-color="#9955E8"/>
</linearGradient>
<linearGradient id="paint18_linear_512_1448" x1="329.641" y1="250.988" x2="329.641" y2="353.832" gradientUnits="userSpaceOnUse">
<stop stop-color="#7DFFAF"/>
<stop offset="1" stop-color="#9955E8"/>
</linearGradient>
<linearGradient id="paint19_linear_512_1448" x1="388.516" y1="159.482" x2="388.516" y2="353.832" gradientUnits="userSpaceOnUse">
<stop stop-color="#7DFFAF"/>
<stop offset="1" stop-color="#9955E8"/>
</linearGradient>
<linearGradient id="paint20_linear_512_1448" x1="414.37" y1="209.89" x2="414.37" y2="243.992" gradientUnits="userSpaceOnUse">
<stop stop-color="#7DFFAF"/>
<stop offset="1" stop-color="#9955E8"/>
</linearGradient>
<linearGradient id="paint21_linear_512_1448" x1="406.119" y1="258.02" x2="406.119" y2="269.806" gradientUnits="userSpaceOnUse">
<stop stop-color="#7DFFAF"/>
<stop offset="1" stop-color="#9955E8"/>
</linearGradient>
<linearGradient id="paint22_linear_512_1448" x1="373.589" y1="272.792" x2="373.589" y2="302.262" gradientUnits="userSpaceOnUse">
<stop stop-color="#7DFFAF"/>
<stop offset="1" stop-color="#9955E8"/>
</linearGradient>
<linearGradient id="paint23_linear_512_1448" x1="97.7859" y1="205.749" x2="97.7859" y2="319.456" gradientUnits="userSpaceOnUse">
<stop stop-color="#7DFFAF"/>
<stop offset="1" stop-color="#9955E8"/>
</linearGradient>
<linearGradient id="paint24_linear_512_1448" x1="121.43" y1="109.014" x2="121.43" y2="186.871" gradientUnits="userSpaceOnUse">
<stop stop-color="#7DFFAF"/>
<stop offset="1" stop-color="#9955E8"/>
</linearGradient>
<linearGradient id="paint25_linear_512_1448" x1="128.126" y1="27.168" x2="128.126" y2="128.049" gradientUnits="userSpaceOnUse">
<stop stop-color="#7DFFAF"/>
<stop offset="1" stop-color="#9955E8"/>
</linearGradient>
<linearGradient id="paint26_linear_512_1448" x1="117.455" y1="73.9935" x2="117.455" y2="83.21" gradientUnits="userSpaceOnUse">
<stop stop-color="#7DFFAF"/>
<stop offset="1" stop-color="#9955E8"/>
</linearGradient>
<linearGradient id="paint27_linear_512_1448" x1="114.17" y1="76.77" x2="87.7495" y2="81.0207" gradientUnits="userSpaceOnUse">
<stop stop-color="#7DFFAF"/>
<stop offset="1" stop-color="#9955E8"/>
</linearGradient>
<linearGradient id="paint28_linear_512_1448" x1="93.2293" y1="62.1729" x2="93.2293" y2="97.7929" gradientUnits="userSpaceOnUse">
<stop stop-color="#7DFFAF"/>
<stop offset="1" stop-color="#9955E8"/>
</linearGradient>
<linearGradient id="paint29_linear_512_1448" x1="104.436" y1="5.72549" x2="104.436" y2="45.0227" gradientUnits="userSpaceOnUse">
<stop stop-color="#7DFFAF"/>
<stop offset="1" stop-color="#9955E8"/>
</linearGradient>
<linearGradient id="paint30_linear_512_1448" x1="166.822" y1="187.738" x2="166.822" y2="291.417" gradientUnits="userSpaceOnUse">
<stop stop-color="#7DFFAF"/>
<stop offset="1" stop-color="#9955E8"/>
</linearGradient>
<linearGradient id="paint31_linear_512_1448" x1="212.909" y1="229.174" x2="212.909" y2="247.756" gradientUnits="userSpaceOnUse">
<stop stop-color="#7DFFAF"/>
<stop offset="1" stop-color="#9955E8"/>
</linearGradient>
</defs>
</svg>
