<svg width="48" height="48" viewBox="0 0 48 48" fill="none" xmlns="http://www.w3.org/2000/svg">
<rect width="48" height="48" rx="8" fill="#413A4F"/>
<path d="M28.3748 15.2498C29.5342 15.2533 30.6451 15.7154 31.4648 16.5352C32.2846 17.3549 32.7467 18.4658 32.7502 19.6252V28.3748C32.7467 29.5342 32.2846 30.6451 31.4648 31.4648C30.6451 32.2846 29.5342 32.7467 28.3748 32.7502H19.6252C18.4658 32.7467 17.3549 32.2846 16.5352 31.4648C15.7154 30.6451 15.2533 29.5342 15.2498 28.3748V19.6252C15.2533 18.4658 15.7154 17.3549 16.5352 16.5352C17.3549 15.7154 18.4658 15.2533 19.6252 15.2498H28.3748ZM28.3748 13.5H19.6252C16.2562 13.5 13.5 16.2562 13.5 19.6252V28.3748C13.5 31.7437 16.2562 34.5 19.6252 34.5H28.3748C31.7437 34.5 34.5 31.7437 34.5 28.3748V19.6252C34.5 16.2562 31.7437 13.5 28.3748 13.5Z" fill="#F5F6F6"/>
<path d="M29.6873 19.6251C29.4278 19.6251 29.174 19.5481 28.9582 19.4039C28.7423 19.2597 28.5741 19.0547 28.4748 18.8149C28.3754 18.5751 28.3494 18.3112 28.4001 18.0566C28.4507 17.802 28.5757 17.5681 28.7593 17.3845C28.9428 17.201 29.1767 17.076 29.4313 17.0253C29.6859 16.9747 29.9498 17.0007 30.1896 17.1C30.4294 17.1994 30.6344 17.3676 30.7786 17.5834C30.9229 17.7993 30.9998 18.053 30.9998 18.3126C31.0002 18.4851 30.9665 18.6559 30.9007 18.8153C30.8349 18.9747 30.7382 19.1196 30.6163 19.2415C30.4943 19.3635 30.3495 19.4601 30.1901 19.526C30.0306 19.5918 29.8598 19.6255 29.6873 19.6251ZM24 20.4998C24.6923 20.4998 25.369 20.7051 25.9446 21.0897C26.5202 21.4743 26.9688 22.0209 27.2337 22.6605C27.4986 23.3001 27.568 24.0038 27.4329 24.6828C27.2978 25.3618 26.9645 25.9854 26.475 26.4749C25.9855 26.9645 25.3618 27.2978 24.6828 27.4329C24.0039 27.5679 23.3001 27.4986 22.6606 27.2337C22.021 26.9688 21.4743 26.5201 21.0897 25.9445C20.7051 25.369 20.4998 24.6922 20.4998 24C20.5008 23.072 20.8699 22.1823 21.5261 21.5261C22.1823 20.8699 23.072 20.5008 24 20.4998ZM24 18.75C22.9617 18.75 21.9466 19.0579 21.0833 19.6348C20.2199 20.2116 19.547 21.0316 19.1496 21.9909C18.7523 22.9502 18.6483 24.0058 18.8509 25.0242C19.0535 26.0426 19.5535 26.9781 20.2877 27.7123C21.0219 28.4465 21.9574 28.9465 22.9758 29.1491C23.9942 29.3517 25.0498 29.2477 26.0091 28.8503C26.9684 28.453 27.7883 27.7801 28.3652 26.9167C28.9421 26.0534 29.25 25.0383 29.25 24C29.25 22.6076 28.6969 21.2722 27.7123 20.2877C26.7277 19.3031 25.3924 18.75 24 18.75Z" fill="#F5F6F6"/>
</svg>
